<svg id="visual" viewBox="0 0 900 600" width="900" height="600" xmlns="http://www.w3.org/2000/svg" xmlns:xlink="http://www.w3.org/1999/xlink" version="1.1"><g transform="translate(389.1258497455485 304.626373280473)"><path d="M91.6 -103.3C139.2 -91.6 212.3 -92.1 241 -64C269.8 -35.9 254.2 20.8 218.6 52.7C183 84.6 127.4 91.7 87.6 113.7C47.8 135.8 23.9 172.9 -2.5 176.4C-29 179.9 -58 149.8 -80 122C-102.1 94.1 -117.1 68.5 -122.3 42.2C-127.4 15.9 -122.7 -11.2 -126.6 -54.1C-130.5 -97 -143.2 -155.7 -123.5 -176.5C-103.8 -197.3 -51.9 -180.1 -14.9 -159.6C22 -139 44.1 -115 91.6 -103.3" fill="rgba(255, 103, 0, 0.62)"></path></g></svg>